<mxfile host="app.diagrams.net" modified="2023-08-22T16:41:15.160Z" agent="Mozilla/5.0 (Windows NT 10.0; Win64; x64) AppleWebKit/537.36 (KHTML, like Gecko) Chrome/116.0.0.0 Safari/537.36" etag="bQCQVdNWnSOyfjsgk6n5" version="21.6.8" type="github">
  <diagram name="Page-1" id="Bw3z9cyC1d2rl3ND5sbJ">
    <mxGraphModel dx="3000" dy="1549" grid="1" gridSize="10" guides="1" tooltips="1" connect="1" arrows="1" fold="1" page="1" pageScale="1" pageWidth="850" pageHeight="1100" math="0" shadow="0">
      <root>
        <mxCell id="0" />
        <mxCell id="1" parent="0" />
        <mxCell id="bArtmmXtZpLSBm0RDngK-128" value="" style="group;dropTarget=0;pointerEvents=0;" vertex="1" parent="1">
          <mxGeometry x="165" y="381" width="713" height="771" as="geometry" />
        </mxCell>
        <mxCell id="bArtmmXtZpLSBm0RDngK-129" value="" style="html=1;overflow=block;blockSpacing=1;swimlane;childLayout=stackLayout;horizontal=1;horizontalStack=0;resizeParent=1;resizeParentMax=0;resizeLast=0;collapsible=0;fontStyle=0;marginBottom=0;swimlaneFillColor=#ffffff;startSize=30;whiteSpace=wrap;fontSize=13;align=left;spacing=0;strokeColor=#333333;strokeOpacity=100;strokeWidth=0.8;fillColor=#d9d9d9;" vertex="1" parent="bArtmmXtZpLSBm0RDngK-128">
          <mxGeometry x="258" y="158" width="149" height="214" as="geometry" />
        </mxCell>
        <mxCell id="bArtmmXtZpLSBm0RDngK-130" value="&lt;div style=&quot;display: flex; justify-content: center; text-align: center; align-items: baseline; font-size: 0; line-height: 1.25;margin-top: -2px;&quot;&gt;&lt;span&gt;&lt;span style=&quot;font-size:13px;color:#333333;font-weight: bold;font-style: italic;&quot;&gt;PK&lt;/span&gt;&lt;span style=&quot;font-size:13px;color:#333333;font-style: italic;&quot;&gt; id&lt;/span&gt;&lt;/span&gt;&lt;/div&gt;" style="part=1;resizeHeight=0;strokeColor=none;align=left;verticalAlign=top;spacingLeft=4;spacingRight=4;overflow=hidden;rotatable=0;points=[[0,0.5],[1,0.5]];portConstraint=eastwest;html=1;whiteSpace=wrap;#FFFFFFwhiteSpace=wrap;fontSize=13;fontColor=#333333;fontStyle=3;fillColor=none;strokeOpacity=100;" vertex="1" parent="bArtmmXtZpLSBm0RDngK-129">
          <mxGeometry y="30" width="149" height="24" as="geometry" />
        </mxCell>
        <mxCell id="bArtmmXtZpLSBm0RDngK-131" value="name" style="part=1;resizeHeight=0;strokeColor=none;align=left;verticalAlign=top;spacingLeft=4;spacingRight=4;rotatable=0;points=[[0,0.5],[1,0.5]];portConstraint=eastwest;whiteSpace=wrap;#FFFFFFwhiteSpace=wrap;overflow=block;blockSpacing=1;html=1;fontSize=13;fillColor=#000000;opacity=5;" vertex="1" parent="bArtmmXtZpLSBm0RDngK-129">
          <mxGeometry y="54" width="149" height="24" as="geometry" />
        </mxCell>
        <mxCell id="bArtmmXtZpLSBm0RDngK-132" value="lat" style="part=1;resizeHeight=0;strokeColor=none;align=left;verticalAlign=top;spacingLeft=4;spacingRight=4;overflow=hidden;rotatable=0;points=[[0,0.5],[1,0.5]];portConstraint=eastwest;html=1;whiteSpace=wrap;#FFFFFFwhiteSpace=wrap;fontSize=13;fontColor=#333333;fontStyle=2;fillColor=none;strokeOpacity=100;" vertex="1" parent="bArtmmXtZpLSBm0RDngK-129">
          <mxGeometry y="78" width="149" height="24" as="geometry" />
        </mxCell>
        <mxCell id="bArtmmXtZpLSBm0RDngK-133" value="lon" style="part=1;resizeHeight=0;strokeColor=none;align=left;verticalAlign=top;spacingLeft=4;spacingRight=4;overflow=hidden;rotatable=0;points=[[0,0.5],[1,0.5]];portConstraint=eastwest;html=1;whiteSpace=wrap;#FFFFFFwhiteSpace=wrap;fontSize=13;fontColor=#333333;fontStyle=2;fillColor=#000000;opacity=5;" vertex="1" parent="bArtmmXtZpLSBm0RDngK-129">
          <mxGeometry y="102" width="149" height="24" as="geometry" />
        </mxCell>
        <mxCell id="bArtmmXtZpLSBm0RDngK-134" value="accepted" style="part=1;resizeHeight=0;strokeColor=none;align=left;verticalAlign=top;spacingLeft=4;spacingRight=4;overflow=hidden;rotatable=0;points=[[0,0.5],[1,0.5]];portConstraint=eastwest;html=1;whiteSpace=wrap;#FFFFFFwhiteSpace=wrap;fontSize=13;fontColor=#333333;fontStyle=2;fillColor=none;strokeOpacity=100;" vertex="1" parent="bArtmmXtZpLSBm0RDngK-129">
          <mxGeometry y="126" width="149" as="geometry" />
        </mxCell>
        <mxCell id="bArtmmXtZpLSBm0RDngK-135" value="adding_date" style="part=1;resizeHeight=0;strokeColor=none;align=left;verticalAlign=top;spacingLeft=4;spacingRight=4;overflow=hidden;rotatable=0;points=[[0,0.5],[1,0.5]];portConstraint=eastwest;html=1;whiteSpace=wrap;#FFFFFFwhiteSpace=wrap;fontSize=13;fontColor=#333333;fontStyle=2;fillColor=#000000;opacity=5;" vertex="1" parent="bArtmmXtZpLSBm0RDngK-129">
          <mxGeometry width="149" as="geometry" />
        </mxCell>
        <mxCell id="bArtmmXtZpLSBm0RDngK-136" value="updating_date" style="part=1;resizeHeight=0;strokeColor=none;align=left;verticalAlign=top;spacingLeft=4;spacingRight=4;overflow=hidden;rotatable=0;points=[[0,0.5],[1,0.5]];portConstraint=eastwest;html=1;whiteSpace=wrap;#FFFFFFwhiteSpace=wrap;fontSize=13;fontColor=#333333;fontStyle=2;fillColor=none;strokeOpacity=100;" vertex="1" parent="bArtmmXtZpLSBm0RDngK-129">
          <mxGeometry width="149" as="geometry" />
        </mxCell>
        <mxCell id="bArtmmXtZpLSBm0RDngK-137" value="description" style="part=1;resizeHeight=0;strokeColor=none;align=left;verticalAlign=top;spacingLeft=4;spacingRight=4;overflow=hidden;rotatable=0;points=[[0,0.5],[1,0.5]];portConstraint=eastwest;html=1;whiteSpace=wrap;#FFFFFFwhiteSpace=wrap;fontSize=13;fontColor=#333333;fontStyle=2;fillColor=#000000;opacity=5;" vertex="1" parent="bArtmmXtZpLSBm0RDngK-129">
          <mxGeometry width="149" as="geometry" />
        </mxCell>
        <mxCell id="bArtmmXtZpLSBm0RDngK-138" value="&lt;div style=&quot;display: flex; justify-content: center; text-align: center; align-items: baseline; font-size: 0; line-height: 1.25;margin-top: -2px;&quot;&gt;&lt;span&gt;&lt;span style=&quot;font-size:13px;color:#333333;font-weight: bold;font-style: italic;&quot;&gt;FK&lt;/span&gt;&lt;span style=&quot;font-size:13px;color:#333333;font-style: italic;&quot;&gt; space_type_id&lt;/span&gt;&lt;/span&gt;&lt;/div&gt;" style="part=1;resizeHeight=0;strokeColor=none;align=left;verticalAlign=top;spacingLeft=4;spacingRight=4;overflow=hidden;rotatable=0;points=[[0,0.5],[1,0.5]];portConstraint=eastwest;html=1;whiteSpace=wrap;#FFFFFFwhiteSpace=wrap;fontSize=13;fontColor=#333333;fontStyle=3;fillColor=none;strokeOpacity=100;" vertex="1" parent="bArtmmXtZpLSBm0RDngK-129">
          <mxGeometry width="149" as="geometry" />
        </mxCell>
        <mxCell id="bArtmmXtZpLSBm0RDngK-139" value="&lt;div style=&quot;display: flex; justify-content: center; text-align: center; align-items: baseline; font-size: 0; line-height: 1.25;margin-top: -2px;&quot;&gt;&lt;span&gt;&lt;span style=&quot;font-size:13px;color:#333333;font-weight: bold;font-style: italic;&quot;&gt;FK&lt;/span&gt;&lt;span style=&quot;font-size:13px;color:#333333;font-style: italic;&quot;&gt; user_id&lt;/span&gt;&lt;/span&gt;&lt;/div&gt;" style="part=1;resizeHeight=0;strokeColor=none;align=left;verticalAlign=top;spacingLeft=4;spacingRight=4;rotatable=0;points=[[0,0.5],[1,0.5]];portConstraint=eastwest;whiteSpace=wrap;#FFFFFFwhiteSpace=wrap;overflow=block;blockSpacing=1;html=1;fontSize=13;fillColor=#000000;opacity=5;" vertex="1" parent="bArtmmXtZpLSBm0RDngK-129">
          <mxGeometry width="149" as="geometry" />
        </mxCell>
        <mxCell id="bArtmmXtZpLSBm0RDngK-140" value="&lt;div style=&quot;display: flex; justify-content: center; text-align: center; align-items: baseline; font-size: 0; line-height: 1.25;margin-top: -2px;&quot;&gt;&lt;span&gt;&lt;span style=&quot;font-size:13px;color:#333333;font-weight: bold;font-style: italic;&quot;&gt;FK&lt;/span&gt;&lt;span style=&quot;font-size:13px;color:#333333;font-style: italic;&quot;&gt; moder_id&lt;/span&gt;&lt;/span&gt;&lt;/div&gt;" style="part=1;resizeHeight=0;strokeColor=none;align=left;verticalAlign=top;spacingLeft=4;spacingRight=4;rotatable=0;points=[[0,0.5],[1,0.5]];portConstraint=eastwest;whiteSpace=wrap;#FFFFFFwhiteSpace=wrap;overflow=block;blockSpacing=1;html=1;fontSize=13;fillColor=none;strokeOpacity=100;" vertex="1" parent="bArtmmXtZpLSBm0RDngK-129">
          <mxGeometry width="149" as="geometry" />
        </mxCell>
        <mxCell id="bArtmmXtZpLSBm0RDngK-141" value="spots" style="html=1;overflow=block;blockSpacing=1;whiteSpace=wrap;fontSize=13.3;fontColor=#333333;fontStyle=2;align=left;spacingLeft=8.4;spacingRight=8.4;spacingTop=2.4;spacing=3.6;verticalAlign=middle;strokeColor=#333333;strokeOpacity=100;fillOpacity=100;fillColor=#ffb781;strokeWidth=0.8;lucidId=Hnjsk4__OzNE;" vertex="1" parent="bArtmmXtZpLSBm0RDngK-128">
          <mxGeometry x="258" y="152" width="150" height="36" as="geometry" />
        </mxCell>
        <mxCell id="bArtmmXtZpLSBm0RDngK-142" value="" style="html=1;overflow=block;blockSpacing=1;swimlane;childLayout=stackLayout;horizontal=1;horizontalStack=0;resizeParent=1;resizeParentMax=0;resizeLast=0;collapsible=0;fontStyle=0;marginBottom=0;swimlaneFillColor=#ffffff;startSize=30;whiteSpace=wrap;fontSize=13;align=left;spacing=0;strokeColor=#333333;strokeOpacity=100;strokeWidth=0.8;fillColor=#d9d9d9;" vertex="1" parent="bArtmmXtZpLSBm0RDngK-128">
          <mxGeometry x="561" width="150" height="78" as="geometry" />
        </mxCell>
        <mxCell id="bArtmmXtZpLSBm0RDngK-143" value="&lt;div style=&quot;display: flex; justify-content: center; text-align: center; align-items: baseline; font-size: 0; line-height: 1.25;margin-top: -2px;&quot;&gt;&lt;span&gt;&lt;span style=&quot;font-size:13px;color:#333333;font-weight: bold;font-style: italic;&quot;&gt;PK&lt;/span&gt;&lt;span style=&quot;font-size:13px;color:#333333;font-style: italic;&quot;&gt; id&lt;/span&gt;&lt;/span&gt;&lt;/div&gt;" style="part=1;resizeHeight=0;strokeColor=none;align=left;verticalAlign=top;spacingLeft=4;spacingRight=4;overflow=hidden;rotatable=0;points=[[0,0.5],[1,0.5]];portConstraint=eastwest;html=1;whiteSpace=wrap;#FFFFFFwhiteSpace=wrap;fontSize=13;fontColor=#333333;fontStyle=3;fillColor=none;strokeOpacity=100;" vertex="1" parent="bArtmmXtZpLSBm0RDngK-142">
          <mxGeometry y="30" width="150" height="24" as="geometry" />
        </mxCell>
        <mxCell id="bArtmmXtZpLSBm0RDngK-144" value="name" style="part=1;resizeHeight=0;strokeColor=none;align=left;verticalAlign=top;spacingLeft=4;spacingRight=4;rotatable=0;points=[[0,0.5],[1,0.5]];portConstraint=eastwest;whiteSpace=wrap;#FFFFFFwhiteSpace=wrap;overflow=block;blockSpacing=1;html=1;fontSize=13;fillColor=#000000;opacity=5;" vertex="1" parent="bArtmmXtZpLSBm0RDngK-142">
          <mxGeometry y="54" width="150" height="24" as="geometry" />
        </mxCell>
        <mxCell id="bArtmmXtZpLSBm0RDngK-145" value="spot_types" style="html=1;overflow=block;blockSpacing=1;whiteSpace=wrap;fontSize=13.3;fontColor=#333333;fontStyle=2;align=left;spacingLeft=8.4;spacingRight=8.4;spacingTop=2.4;spacing=3.6;verticalAlign=middle;strokeColor=#333333;strokeOpacity=100;fillOpacity=100;fillColor=#ffb781;strokeWidth=0.8;lucidId=4oEvv7-jJj2R;" vertex="1" parent="bArtmmXtZpLSBm0RDngK-128">
          <mxGeometry x="561" width="150" height="31" as="geometry" />
        </mxCell>
        <mxCell id="bArtmmXtZpLSBm0RDngK-146" value="" style="html=1;overflow=block;blockSpacing=1;swimlane;childLayout=stackLayout;horizontal=1;horizontalStack=0;resizeParent=1;resizeParentMax=0;resizeLast=0;collapsible=0;fontStyle=0;marginBottom=0;swimlaneFillColor=#ffffff;startSize=30;whiteSpace=wrap;fontSize=13;align=left;spacing=0;strokeColor=#333333;strokeOpacity=100;strokeWidth=0.8;fillColor=#d9d9d9;" vertex="1" parent="bArtmmXtZpLSBm0RDngK-128">
          <mxGeometry x="2" y="165" width="150" height="54" as="geometry" />
        </mxCell>
        <mxCell id="bArtmmXtZpLSBm0RDngK-147" value="&lt;div style=&quot;display: flex; justify-content: center; text-align: center; align-items: baseline; font-size: 0; line-height: 1.25;margin-top: -2px;&quot;&gt;&lt;span&gt;&lt;span style=&quot;font-size:13px;color:#333333;font-weight: bold;font-style: italic;&quot;&gt;PK&lt;/span&gt;&lt;span style=&quot;font-size:13px;color:#333333;font-style: italic;&quot;&gt; id&lt;/span&gt;&lt;/span&gt;&lt;/div&gt;" style="part=1;resizeHeight=0;strokeColor=none;align=left;verticalAlign=top;spacingLeft=4;spacingRight=4;overflow=hidden;rotatable=0;points=[[0,0.5],[1,0.5]];portConstraint=eastwest;html=1;whiteSpace=wrap;#FFFFFFwhiteSpace=wrap;fontSize=13;fontColor=#333333;fontStyle=3;fillColor=none;strokeOpacity=100;" vertex="1" parent="bArtmmXtZpLSBm0RDngK-146">
          <mxGeometry y="30" width="150" height="24" as="geometry" />
        </mxCell>
        <mxCell id="bArtmmXtZpLSBm0RDngK-148" value="name" style="part=1;resizeHeight=0;strokeColor=none;align=left;verticalAlign=top;spacingLeft=4;spacingRight=4;rotatable=0;points=[[0,0.5],[1,0.5]];portConstraint=eastwest;whiteSpace=wrap;#FFFFFFwhiteSpace=wrap;overflow=block;blockSpacing=1;html=1;fontSize=13;fillColor=#000000;opacity=5;" vertex="1" parent="bArtmmXtZpLSBm0RDngK-146">
          <mxGeometry y="54" width="150" height="24" as="geometry" />
        </mxCell>
        <mxCell id="bArtmmXtZpLSBm0RDngK-149" value="space_types" style="html=1;overflow=block;blockSpacing=1;whiteSpace=wrap;fontSize=13.3;fontColor=#333333;fontStyle=2;align=left;spacingLeft=8.4;spacingRight=8.4;spacingTop=2.4;spacing=3.6;verticalAlign=middle;strokeColor=#333333;strokeOpacity=100;fillOpacity=100;fillColor=#ffb781;strokeWidth=0.8;lucidId=NPEvmO_.cLyE;" vertex="1" parent="bArtmmXtZpLSBm0RDngK-128">
          <mxGeometry x="1" y="165" width="150" height="29" as="geometry" />
        </mxCell>
        <mxCell id="bArtmmXtZpLSBm0RDngK-150" value="" style="html=1;overflow=block;blockSpacing=1;swimlane;childLayout=stackLayout;horizontal=1;horizontalStack=0;resizeParent=1;resizeParentMax=0;resizeLast=0;collapsible=0;fontStyle=0;marginBottom=0;swimlaneFillColor=#ffffff;startSize=30;whiteSpace=wrap;fontSize=13;align=left;spacing=0;strokeColor=#333333;strokeOpacity=100;strokeWidth=0.8;fillColor=#d9d9d9;" vertex="1" parent="bArtmmXtZpLSBm0RDngK-128">
          <mxGeometry x="1" width="149" height="102" as="geometry" />
        </mxCell>
        <mxCell id="bArtmmXtZpLSBm0RDngK-151" value="&lt;div style=&quot;display: flex; justify-content: center; text-align: center; align-items: baseline; font-size: 0; line-height: 1.25;margin-top: -2px;&quot;&gt;&lt;span&gt;&lt;span style=&quot;font-size:13px;color:#333333;font-weight: bold;font-style: italic;&quot;&gt;PK&lt;/span&gt;&lt;span style=&quot;font-size:13px;color:#333333;font-style: italic;&quot;&gt; id&lt;/span&gt;&lt;/span&gt;&lt;/div&gt;" style="part=1;resizeHeight=0;strokeColor=none;align=left;verticalAlign=top;spacingLeft=4;spacingRight=4;overflow=hidden;rotatable=0;points=[[0,0.5],[1,0.5]];portConstraint=eastwest;html=1;whiteSpace=wrap;#FFFFFFwhiteSpace=wrap;fontSize=13;fontColor=#333333;fontStyle=3;fillColor=none;strokeOpacity=100;" vertex="1" parent="bArtmmXtZpLSBm0RDngK-150">
          <mxGeometry y="30" width="149" height="24" as="geometry" />
        </mxCell>
        <mxCell id="bArtmmXtZpLSBm0RDngK-152" value="name" style="part=1;resizeHeight=0;strokeColor=none;align=left;verticalAlign=top;spacingLeft=4;spacingRight=4;rotatable=0;points=[[0,0.5],[1,0.5]];portConstraint=eastwest;whiteSpace=wrap;#FFFFFFwhiteSpace=wrap;overflow=block;blockSpacing=1;html=1;fontSize=13;fillColor=#000000;opacity=5;" vertex="1" parent="bArtmmXtZpLSBm0RDngK-150">
          <mxGeometry y="54" width="149" height="24" as="geometry" />
        </mxCell>
        <mxCell id="bArtmmXtZpLSBm0RDngK-153" value="transport_name" style="part=1;resizeHeight=0;strokeColor=none;align=left;verticalAlign=top;spacingLeft=4;spacingRight=4;overflow=hidden;rotatable=0;points=[[0,0.5],[1,0.5]];portConstraint=eastwest;html=1;whiteSpace=wrap;#FFFFFFwhiteSpace=wrap;fontSize=13;fontColor=#333333;fontStyle=2;fillColor=none;strokeOpacity=100;" vertex="1" parent="bArtmmXtZpLSBm0RDngK-150">
          <mxGeometry y="78" width="149" height="24" as="geometry" />
        </mxCell>
        <mxCell id="bArtmmXtZpLSBm0RDngK-154" value="sport_types" style="html=1;overflow=block;blockSpacing=1;whiteSpace=wrap;fontSize=13.3;fontColor=#333333;fontStyle=2;align=left;spacingLeft=8.4;spacingRight=8.4;spacingTop=2.4;spacing=3.6;verticalAlign=middle;strokeColor=#333333;strokeOpacity=100;fillOpacity=100;fillColor=#ffb781;strokeWidth=0.8;lucidId=BSEvX.xLH~oW;" vertex="1" parent="bArtmmXtZpLSBm0RDngK-128">
          <mxGeometry y="1" width="150" height="30" as="geometry" />
        </mxCell>
        <mxCell id="bArtmmXtZpLSBm0RDngK-155" value="" style="html=1;overflow=block;blockSpacing=1;swimlane;childLayout=stackLayout;horizontal=1;horizontalStack=0;resizeParent=1;resizeParentMax=0;resizeLast=0;collapsible=0;fontStyle=0;marginBottom=0;swimlaneFillColor=#ffffff;startSize=30;whiteSpace=wrap;fontSize=13;align=left;spacing=0;strokeColor=#333333;strokeOpacity=100;strokeWidth=0.8;fillColor=#d9d9d9;" vertex="1" parent="bArtmmXtZpLSBm0RDngK-128">
          <mxGeometry y="279" width="149" height="126" as="geometry" />
        </mxCell>
        <mxCell id="bArtmmXtZpLSBm0RDngK-156" value="&lt;div style=&quot;display: flex; justify-content: center; text-align: center; align-items: baseline; font-size: 0; line-height: 1.25;margin-top: -2px;&quot;&gt;&lt;span&gt;&lt;span style=&quot;font-size:13px;color:#333333;font-weight: bold;font-style: italic;&quot;&gt;PK&lt;/span&gt;&lt;span style=&quot;font-size:13px;color:#333333;font-style: italic;&quot;&gt; id&lt;/span&gt;&lt;/span&gt;&lt;/div&gt;" style="part=1;resizeHeight=0;strokeColor=none;align=left;verticalAlign=top;spacingLeft=4;spacingRight=4;overflow=hidden;rotatable=0;points=[[0,0.5],[1,0.5]];portConstraint=eastwest;html=1;whiteSpace=wrap;#FFFFFFwhiteSpace=wrap;fontSize=13;fontColor=#333333;fontStyle=3;fillColor=none;strokeOpacity=100;" vertex="1" parent="bArtmmXtZpLSBm0RDngK-155">
          <mxGeometry y="30" width="149" height="24" as="geometry" />
        </mxCell>
        <mxCell id="bArtmmXtZpLSBm0RDngK-157" value="text" style="part=1;resizeHeight=0;strokeColor=none;align=left;verticalAlign=top;spacingLeft=4;spacingRight=4;rotatable=0;points=[[0,0.5],[1,0.5]];portConstraint=eastwest;whiteSpace=wrap;#FFFFFFwhiteSpace=wrap;overflow=block;blockSpacing=1;html=1;fontSize=13;fillColor=#000000;opacity=5;" vertex="1" parent="bArtmmXtZpLSBm0RDngK-155">
          <mxGeometry y="54" width="149" height="24" as="geometry" />
        </mxCell>
        <mxCell id="bArtmmXtZpLSBm0RDngK-158" value="upload_date" style="part=1;resizeHeight=0;strokeColor=none;align=left;verticalAlign=top;spacingLeft=4;spacingRight=4;overflow=hidden;rotatable=0;points=[[0,0.5],[1,0.5]];portConstraint=eastwest;html=1;whiteSpace=wrap;#FFFFFFwhiteSpace=wrap;fontSize=13;fontColor=#333333;fontStyle=2;fillColor=none;strokeOpacity=100;" vertex="1" parent="bArtmmXtZpLSBm0RDngK-155">
          <mxGeometry y="78" width="149" height="24" as="geometry" />
        </mxCell>
        <mxCell id="bArtmmXtZpLSBm0RDngK-159" value="&lt;div style=&quot;display: flex; justify-content: center; text-align: center; align-items: baseline; font-size: 0; line-height: 1.25;margin-top: -2px;&quot;&gt;&lt;span&gt;&lt;span style=&quot;font-size:13px;color:#333333;font-weight: bold;font-style: italic;&quot;&gt;FK&lt;/span&gt;&lt;span style=&quot;font-size:13px;color:#333333;font-style: italic;&quot;&gt; spot_id&lt;/span&gt;&lt;/span&gt;&lt;/div&gt;" style="part=1;resizeHeight=0;strokeColor=none;align=left;verticalAlign=top;spacingLeft=4;spacingRight=4;overflow=hidden;rotatable=0;points=[[0,0.5],[1,0.5]];portConstraint=eastwest;html=1;whiteSpace=wrap;#FFFFFFwhiteSpace=wrap;fontSize=13;fontColor=#333333;fontStyle=3;fillColor=#000000;opacity=5;" vertex="1" parent="bArtmmXtZpLSBm0RDngK-155">
          <mxGeometry y="102" width="149" height="24" as="geometry" />
        </mxCell>
        <mxCell id="bArtmmXtZpLSBm0RDngK-160" value="&lt;div style=&quot;display: flex; justify-content: center; text-align: center; align-items: baseline; font-size: 0; line-height: 1.25;margin-top: -2px;&quot;&gt;&lt;span&gt;&lt;span style=&quot;font-size:13px;color:#333333;font-weight: bold;font-style: italic;&quot;&gt;FK&lt;/span&gt;&lt;span style=&quot;font-size:13px;color:#333333;font-style: italic;&quot;&gt; user_id&lt;/span&gt;&lt;/span&gt;&lt;/div&gt;" style="part=1;resizeHeight=0;strokeColor=none;align=left;verticalAlign=top;spacingLeft=4;spacingRight=4;rotatable=0;points=[[0,0.5],[1,0.5]];portConstraint=eastwest;whiteSpace=wrap;#FFFFFFwhiteSpace=wrap;overflow=block;blockSpacing=1;html=1;fontSize=13;fillColor=none;strokeOpacity=100;" vertex="1" parent="bArtmmXtZpLSBm0RDngK-155">
          <mxGeometry y="126" width="149" as="geometry" />
        </mxCell>
        <mxCell id="bArtmmXtZpLSBm0RDngK-161" value="comments" style="html=1;overflow=block;blockSpacing=1;whiteSpace=wrap;fontSize=13.3;fontColor=#333333;fontStyle=2;align=left;spacingLeft=8.4;spacingRight=8.4;spacingTop=2.4;spacing=3.6;verticalAlign=middle;strokeColor=#333333;strokeOpacity=100;fillOpacity=100;fillColor=#ffb781;strokeWidth=0.8;lucidId=oVEvDbQvNICP;" vertex="1" parent="bArtmmXtZpLSBm0RDngK-128">
          <mxGeometry y="279" width="150" height="29" as="geometry" />
        </mxCell>
        <mxCell id="bArtmmXtZpLSBm0RDngK-162" value="Пользователь" style="html=1;overflow=block;blockSpacing=1;swimlane;childLayout=stackLayout;horizontal=1;horizontalStack=0;resizeParent=1;resizeParentMax=0;resizeLast=0;collapsible=0;fontStyle=0;marginBottom=0;swimlaneFillColor=#ffffff;startSize=30;whiteSpace=wrap;fontSize=13.3;fontColor=#333333;align=left;spacing=0;strokeColor=#333333;strokeOpacity=100;strokeWidth=0.8;fillColor=#d9d9d9;" vertex="1" parent="bArtmmXtZpLSBm0RDngK-128">
          <mxGeometry x="563" y="549" width="149" height="174" as="geometry" />
        </mxCell>
        <mxCell id="bArtmmXtZpLSBm0RDngK-163" value="&lt;div style=&quot;display: flex; justify-content: center; text-align: center; align-items: baseline; font-size: 0; line-height: 1.25;margin-top: -2px;&quot;&gt;&lt;span&gt;&lt;span style=&quot;font-size:13px;color:#333333;font-weight: bold;font-style: italic;&quot;&gt;PK&lt;/span&gt;&lt;span style=&quot;font-size:13px;color:#333333;font-style: italic;&quot;&gt; id&lt;/span&gt;&lt;/span&gt;&lt;/div&gt;" style="part=1;resizeHeight=0;strokeColor=none;align=left;verticalAlign=top;spacingLeft=4;spacingRight=4;overflow=hidden;rotatable=0;points=[[0,0.5],[1,0.5]];portConstraint=eastwest;html=1;whiteSpace=wrap;#FFFFFFwhiteSpace=wrap;fontSize=13;fontColor=#333333;fontStyle=3;fillColor=none;strokeOpacity=100;" vertex="1" parent="bArtmmXtZpLSBm0RDngK-162">
          <mxGeometry y="30" width="149" height="24" as="geometry" />
        </mxCell>
        <mxCell id="bArtmmXtZpLSBm0RDngK-164" value="name" style="part=1;resizeHeight=0;strokeColor=none;align=left;verticalAlign=top;spacingLeft=4;spacingRight=4;rotatable=0;points=[[0,0.5],[1,0.5]];portConstraint=eastwest;whiteSpace=wrap;#FFFFFFwhiteSpace=wrap;overflow=block;blockSpacing=1;html=1;fontSize=13;fillColor=#000000;opacity=5;" vertex="1" parent="bArtmmXtZpLSBm0RDngK-162">
          <mxGeometry y="54" width="149" height="24" as="geometry" />
        </mxCell>
        <mxCell id="bArtmmXtZpLSBm0RDngK-165" value="email" style="part=1;resizeHeight=0;strokeColor=none;align=left;verticalAlign=top;spacingLeft=4;spacingRight=4;overflow=hidden;rotatable=0;points=[[0,0.5],[1,0.5]];portConstraint=eastwest;html=1;whiteSpace=wrap;#FFFFFFwhiteSpace=wrap;fontSize=13;fontColor=#333333;fontStyle=2;fillColor=none;strokeOpacity=100;" vertex="1" parent="bArtmmXtZpLSBm0RDngK-162">
          <mxGeometry y="78" width="149" height="24" as="geometry" />
        </mxCell>
        <mxCell id="bArtmmXtZpLSBm0RDngK-166" value="pass_hash" style="part=1;resizeHeight=0;strokeColor=none;align=left;verticalAlign=top;spacingLeft=4;spacingRight=4;overflow=hidden;rotatable=0;points=[[0,0.5],[1,0.5]];portConstraint=eastwest;html=1;whiteSpace=wrap;#FFFFFFwhiteSpace=wrap;fontSize=13;fontColor=#333333;fontStyle=2;fillColor=#000000;opacity=5;" vertex="1" parent="bArtmmXtZpLSBm0RDngK-162">
          <mxGeometry y="102" width="149" height="24" as="geometry" />
        </mxCell>
        <mxCell id="bArtmmXtZpLSBm0RDngK-167" value="phone_number" style="part=1;resizeHeight=0;strokeColor=none;align=left;verticalAlign=top;spacingLeft=4;spacingRight=4;overflow=hidden;rotatable=0;points=[[0,0.5],[1,0.5]];portConstraint=eastwest;html=1;whiteSpace=wrap;#FFFFFFwhiteSpace=wrap;fontSize=13;fontColor=#333333;fontStyle=2;fillColor=none;strokeOpacity=100;" vertex="1" parent="bArtmmXtZpLSBm0RDngK-162">
          <mxGeometry y="126" width="149" as="geometry" />
        </mxCell>
        <mxCell id="bArtmmXtZpLSBm0RDngK-168" value="birthday" style="part=1;resizeHeight=0;strokeColor=none;align=left;verticalAlign=top;spacingLeft=4;spacingRight=4;overflow=hidden;rotatable=0;points=[[0,0.5],[1,0.5]];portConstraint=eastwest;html=1;whiteSpace=wrap;#FFFFFFwhiteSpace=wrap;fontSize=13;fontColor=#333333;fontStyle=2;fillColor=#000000;opacity=5;" vertex="1" parent="bArtmmXtZpLSBm0RDngK-162">
          <mxGeometry width="149" as="geometry" />
        </mxCell>
        <mxCell id="bArtmmXtZpLSBm0RDngK-169" value="reg_date" style="part=1;resizeHeight=0;strokeColor=none;align=left;verticalAlign=top;spacingLeft=4;spacingRight=4;overflow=hidden;rotatable=0;points=[[0,0.5],[1,0.5]];portConstraint=eastwest;html=1;whiteSpace=wrap;#FFFFFFwhiteSpace=wrap;fontSize=13;fontColor=#333333;fontStyle=2;fillColor=none;strokeOpacity=100;" vertex="1" parent="bArtmmXtZpLSBm0RDngK-162">
          <mxGeometry width="149" as="geometry" />
        </mxCell>
        <mxCell id="bArtmmXtZpLSBm0RDngK-170" value="&lt;div style=&quot;display: flex; justify-content: center; text-align: center; align-items: baseline; font-size: 0; line-height: 1.25;margin-top: -2px;&quot;&gt;&lt;span&gt;&lt;span style=&quot;font-size:13px;color:#333333;font-weight: bold;font-style: italic;&quot;&gt;FK&lt;/span&gt;&lt;span style=&quot;font-size:13px;color:#333333;font-style: italic;&quot;&gt; role_id&lt;/span&gt;&lt;/span&gt;&lt;/div&gt;" style="part=1;resizeHeight=0;strokeColor=none;align=left;verticalAlign=top;spacingLeft=4;spacingRight=4;overflow=hidden;rotatable=0;points=[[0,0.5],[1,0.5]];portConstraint=eastwest;html=1;whiteSpace=wrap;#FFFFFFwhiteSpace=wrap;fontSize=13;fontColor=#333333;fontStyle=3;fillColor=#000000;opacity=5;" vertex="1" parent="bArtmmXtZpLSBm0RDngK-162">
          <mxGeometry width="149" as="geometry" />
        </mxCell>
        <mxCell id="bArtmmXtZpLSBm0RDngK-171" value="users" style="html=1;overflow=block;blockSpacing=1;whiteSpace=wrap;fontSize=13.3;fontColor=#333333;fontStyle=2;align=left;spacingLeft=8.4;spacingRight=8.4;spacingTop=2.4;spacing=3.6;verticalAlign=middle;strokeColor=#333333;strokeOpacity=100;fillOpacity=100;fillColor=#ffb781;strokeWidth=0.8;lucidId=ZKXvLBEpzjM~;" vertex="1" parent="bArtmmXtZpLSBm0RDngK-128">
          <mxGeometry x="563" y="549" width="150" height="30" as="geometry" />
        </mxCell>
        <mxCell id="bArtmmXtZpLSBm0RDngK-172" value="" style="html=1;overflow=block;blockSpacing=1;swimlane;childLayout=stackLayout;horizontal=1;horizontalStack=0;resizeParent=1;resizeParentMax=0;resizeLast=0;collapsible=0;fontStyle=0;marginBottom=0;swimlaneFillColor=#ffffff;startSize=30;whiteSpace=wrap;fontSize=13;align=left;spacing=0;strokeColor=#333333;strokeOpacity=100;strokeWidth=0.8;fillColor=#d9d9d9;" vertex="1" parent="bArtmmXtZpLSBm0RDngK-128">
          <mxGeometry x="257" y="669" width="149" height="102" as="geometry" />
        </mxCell>
        <mxCell id="bArtmmXtZpLSBm0RDngK-173" value="&lt;div style=&quot;display: flex; justify-content: center; text-align: center; align-items: baseline; font-size: 0; line-height: 1.25;margin-top: -2px;&quot;&gt;&lt;span&gt;&lt;span style=&quot;font-size:13px;color:#333333;font-weight: bold;font-style: italic;&quot;&gt;PK&lt;/span&gt;&lt;span style=&quot;font-size:13px;color:#333333;font-style: italic;&quot;&gt; id&lt;/span&gt;&lt;/span&gt;&lt;/div&gt;" style="part=1;resizeHeight=0;strokeColor=none;align=left;verticalAlign=top;spacingLeft=4;spacingRight=4;overflow=hidden;rotatable=0;points=[[0,0.5],[1,0.5]];portConstraint=eastwest;html=1;whiteSpace=wrap;#FFFFFFwhiteSpace=wrap;fontSize=13;fontColor=#333333;fontStyle=3;fillColor=none;strokeOpacity=100;" vertex="1" parent="bArtmmXtZpLSBm0RDngK-172">
          <mxGeometry y="30" width="149" height="24" as="geometry" />
        </mxCell>
        <mxCell id="bArtmmXtZpLSBm0RDngK-174" value="name" style="part=1;resizeHeight=0;strokeColor=none;align=left;verticalAlign=top;spacingLeft=4;spacingRight=4;rotatable=0;points=[[0,0.5],[1,0.5]];portConstraint=eastwest;whiteSpace=wrap;#FFFFFFwhiteSpace=wrap;overflow=block;blockSpacing=1;html=1;fontSize=13;fillColor=#000000;opacity=5;" vertex="1" parent="bArtmmXtZpLSBm0RDngK-172">
          <mxGeometry y="54" width="149" height="24" as="geometry" />
        </mxCell>
        <mxCell id="bArtmmXtZpLSBm0RDngK-175" value="code_name" style="part=1;resizeHeight=0;strokeColor=none;align=left;verticalAlign=top;spacingLeft=4;spacingRight=4;overflow=hidden;rotatable=0;points=[[0,0.5],[1,0.5]];portConstraint=eastwest;html=1;whiteSpace=wrap;#FFFFFFwhiteSpace=wrap;fontSize=13;fontColor=#333333;fontStyle=2;fillColor=none;strokeOpacity=100;" vertex="1" parent="bArtmmXtZpLSBm0RDngK-172">
          <mxGeometry y="78" width="149" height="24" as="geometry" />
        </mxCell>
        <mxCell id="bArtmmXtZpLSBm0RDngK-176" value="roles" style="html=1;overflow=block;blockSpacing=1;whiteSpace=wrap;fontSize=13.3;fontColor=#333333;fontStyle=2;align=left;spacingLeft=8.4;spacingRight=8.4;spacingTop=2.4;spacing=3.6;verticalAlign=middle;strokeColor=#333333;strokeOpacity=100;fillOpacity=100;fillColor=#ffb781;strokeWidth=0.8;lucidId=MLXvVwgEbP2Q;" vertex="1" parent="bArtmmXtZpLSBm0RDngK-128">
          <mxGeometry x="257" y="669" width="150" height="30" as="geometry" />
        </mxCell>
        <mxCell id="bArtmmXtZpLSBm0RDngK-177" value="" style="html=1;overflow=block;blockSpacing=1;swimlane;childLayout=stackLayout;horizontal=1;horizontalStack=0;resizeParent=1;resizeParentMax=0;resizeLast=0;collapsible=0;fontStyle=0;marginBottom=0;swimlaneFillColor=#ffffff;startSize=30;whiteSpace=wrap;fontSize=13;align=left;spacing=0;strokeColor=#333333;strokeOpacity=100;strokeWidth=0.8;fillColor=#d9d9d9;" vertex="1" parent="bArtmmXtZpLSBm0RDngK-128">
          <mxGeometry x="563" y="279" width="150" height="198" as="geometry" />
        </mxCell>
        <mxCell id="bArtmmXtZpLSBm0RDngK-178" value="&lt;div style=&quot;display: flex; justify-content: center; text-align: center; align-items: baseline; font-size: 0; line-height: 1.25;margin-top: -2px;&quot;&gt;&lt;span&gt;&lt;span style=&quot;font-size:13px;color:#333333;font-weight: bold;font-style: italic;&quot;&gt;PK&lt;/span&gt;&lt;span style=&quot;font-size:13px;color:#333333;font-style: italic;&quot;&gt; id&lt;/span&gt;&lt;/span&gt;&lt;/div&gt;" style="part=1;resizeHeight=0;strokeColor=none;align=left;verticalAlign=top;spacingLeft=4;spacingRight=4;overflow=hidden;rotatable=0;points=[[0,0.5],[1,0.5]];portConstraint=eastwest;html=1;whiteSpace=wrap;#FFFFFFwhiteSpace=wrap;fontSize=13;fontColor=#333333;fontStyle=3;fillColor=none;strokeOpacity=100;" vertex="1" parent="bArtmmXtZpLSBm0RDngK-177">
          <mxGeometry y="30" width="150" height="24" as="geometry" />
        </mxCell>
        <mxCell id="bArtmmXtZpLSBm0RDngK-179" value="orig_name" style="part=1;resizeHeight=0;strokeColor=none;align=left;verticalAlign=top;spacingLeft=4;spacingRight=4;rotatable=0;points=[[0,0.5],[1,0.5]];portConstraint=eastwest;whiteSpace=wrap;#FFFFFFwhiteSpace=wrap;overflow=block;blockSpacing=1;html=1;fontSize=13;fillColor=#000000;opacity=5;" vertex="1" parent="bArtmmXtZpLSBm0RDngK-177">
          <mxGeometry y="54" width="150" height="24" as="geometry" />
        </mxCell>
        <mxCell id="bArtmmXtZpLSBm0RDngK-180" value="gen_name" style="part=1;resizeHeight=0;strokeColor=none;align=left;verticalAlign=top;spacingLeft=4;spacingRight=4;overflow=hidden;rotatable=0;points=[[0,0.5],[1,0.5]];portConstraint=eastwest;html=1;whiteSpace=wrap;#FFFFFFwhiteSpace=wrap;fontSize=13;fontColor=#333333;fontStyle=2;fillColor=none;strokeOpacity=100;" vertex="1" parent="bArtmmXtZpLSBm0RDngK-177">
          <mxGeometry y="78" width="150" height="24" as="geometry" />
        </mxCell>
        <mxCell id="bArtmmXtZpLSBm0RDngK-181" value="size" style="part=1;resizeHeight=0;strokeColor=none;align=left;verticalAlign=top;spacingLeft=4;spacingRight=4;overflow=hidden;rotatable=0;points=[[0,0.5],[1,0.5]];portConstraint=eastwest;html=1;whiteSpace=wrap;#FFFFFFwhiteSpace=wrap;fontSize=13;fontColor=#333333;fontStyle=2;fillColor=#000000;opacity=5;" vertex="1" parent="bArtmmXtZpLSBm0RDngK-177">
          <mxGeometry y="102" width="150" height="24" as="geometry" />
        </mxCell>
        <mxCell id="bArtmmXtZpLSBm0RDngK-182" value="upload_date" style="part=1;resizeHeight=0;strokeColor=none;align=left;verticalAlign=top;spacingLeft=4;spacingRight=4;overflow=hidden;rotatable=0;points=[[0,0.5],[1,0.5]];portConstraint=eastwest;html=1;whiteSpace=wrap;#FFFFFFwhiteSpace=wrap;fontSize=13;fontColor=#333333;fontStyle=2;fillColor=none;strokeOpacity=100;" vertex="1" parent="bArtmmXtZpLSBm0RDngK-177">
          <mxGeometry y="126" width="150" as="geometry" />
        </mxCell>
        <mxCell id="bArtmmXtZpLSBm0RDngK-183" value="&lt;div style=&quot;display: flex; justify-content: center; text-align: center; align-items: baseline; font-size: 0; line-height: 1.25;margin-top: -2px;&quot;&gt;&lt;span&gt;&lt;span style=&quot;font-size:13px;color:#333333;font-weight: bold;font-style: italic;&quot;&gt;FK&lt;/span&gt;&lt;span style=&quot;font-size:13px;color:#333333;font-style: italic;&quot;&gt; spot_id&lt;/span&gt;&lt;/span&gt;&lt;/div&gt;" style="part=1;resizeHeight=0;strokeColor=none;align=left;verticalAlign=top;spacingLeft=4;spacingRight=4;overflow=hidden;rotatable=0;points=[[0,0.5],[1,0.5]];portConstraint=eastwest;html=1;whiteSpace=wrap;#FFFFFFwhiteSpace=wrap;fontSize=13;fontColor=#333333;fontStyle=3;fillColor=#000000;opacity=5;" vertex="1" parent="bArtmmXtZpLSBm0RDngK-177">
          <mxGeometry width="150" as="geometry" />
        </mxCell>
        <mxCell id="bArtmmXtZpLSBm0RDngK-184" value="&lt;div style=&quot;display: flex; justify-content: center; text-align: center; align-items: baseline; font-size: 0; line-height: 1.25;margin-top: -2px;&quot;&gt;&lt;span&gt;&lt;span style=&quot;font-size:13px;color:#333333;font-weight: bold;font-style: italic;&quot;&gt;FK&lt;/span&gt;&lt;span style=&quot;font-size:13px;color:#333333;font-style: italic;&quot;&gt; user_id&lt;/span&gt;&lt;/span&gt;&lt;/div&gt;" style="part=1;resizeHeight=0;strokeColor=none;align=left;verticalAlign=top;spacingLeft=4;spacingRight=4;rotatable=0;points=[[0,0.5],[1,0.5]];portConstraint=eastwest;whiteSpace=wrap;#FFFFFFwhiteSpace=wrap;overflow=block;blockSpacing=1;html=1;fontSize=13;fillColor=none;strokeOpacity=100;" vertex="1" parent="bArtmmXtZpLSBm0RDngK-177">
          <mxGeometry width="150" as="geometry" />
        </mxCell>
        <mxCell id="bArtmmXtZpLSBm0RDngK-185" value="image_info" style="html=1;overflow=block;blockSpacing=1;whiteSpace=wrap;fontSize=13.3;fontColor=#333333;fontStyle=2;align=left;spacingLeft=8.4;spacingRight=8.4;spacingTop=2.4;spacing=3.6;verticalAlign=middle;strokeColor=#333333;strokeOpacity=100;fillOpacity=100;fillColor=#ffb781;strokeWidth=0.8;lucidId=rPXv672ji5be;" vertex="1" parent="bArtmmXtZpLSBm0RDngK-128">
          <mxGeometry x="563" y="271" width="150" height="36" as="geometry" />
        </mxCell>
        <mxCell id="bArtmmXtZpLSBm0RDngK-186" value="" style="html=1;overflow=block;blockSpacing=1;swimlane;childLayout=stackLayout;horizontal=1;horizontalStack=0;resizeParent=1;resizeParentMax=0;resizeLast=0;collapsible=0;fontStyle=0;marginBottom=0;swimlaneFillColor=#ffffff;startSize=30;whiteSpace=wrap;fontSize=13;align=left;spacing=0;strokeColor=#333333;strokeOpacity=100;strokeWidth=0.8;fillColor=#d9d9d9;" vertex="1" parent="bArtmmXtZpLSBm0RDngK-128">
          <mxGeometry x="258" y="512" width="149" height="126" as="geometry" />
        </mxCell>
        <mxCell id="bArtmmXtZpLSBm0RDngK-187" value="&lt;div style=&quot;display: flex; justify-content: center; text-align: center; align-items: baseline; font-size: 0; line-height: 1.25;margin-top: -2px;&quot;&gt;&lt;span&gt;&lt;span style=&quot;font-size:13px;color:#333333;font-weight: bold;font-style: italic;&quot;&gt;PK&lt;/span&gt;&lt;span style=&quot;font-size:13px;color:#333333;font-style: italic;&quot;&gt; spot_id&lt;/span&gt;&lt;/span&gt;&lt;/div&gt;" style="part=1;resizeHeight=0;strokeColor=none;align=left;verticalAlign=top;spacingLeft=4;spacingRight=4;overflow=hidden;rotatable=0;points=[[0,0.5],[1,0.5]];portConstraint=eastwest;html=1;whiteSpace=wrap;#FFFFFFwhiteSpace=wrap;fontSize=13;fontColor=#333333;fontStyle=3;fillColor=none;strokeOpacity=100;" vertex="1" parent="bArtmmXtZpLSBm0RDngK-186">
          <mxGeometry y="30" width="149" height="24" as="geometry" />
        </mxCell>
        <mxCell id="bArtmmXtZpLSBm0RDngK-188" value="&lt;div style=&quot;display: flex; justify-content: center; text-align: center; align-items: baseline; font-size: 0; line-height: 1.25;margin-top: -2px;&quot;&gt;&lt;span&gt;&lt;span style=&quot;font-size:13px;color:#333333;font-weight: bold;font-style: italic;&quot;&gt;PK&lt;/span&gt;&lt;span style=&quot;font-size:13px;color:#333333;font-style: italic;&quot;&gt; user_id&lt;/span&gt;&lt;/span&gt;&lt;/div&gt;" style="part=1;resizeHeight=0;strokeColor=none;align=left;verticalAlign=top;spacingLeft=4;spacingRight=4;rotatable=0;points=[[0,0.5],[1,0.5]];portConstraint=eastwest;whiteSpace=wrap;#FFFFFFwhiteSpace=wrap;overflow=block;blockSpacing=1;html=1;fontSize=13;fillColor=#000000;opacity=5;" vertex="1" parent="bArtmmXtZpLSBm0RDngK-186">
          <mxGeometry y="54" width="149" height="24" as="geometry" />
        </mxCell>
        <mxCell id="bArtmmXtZpLSBm0RDngK-189" value="liked" style="part=1;resizeHeight=0;strokeColor=none;align=left;verticalAlign=top;spacingLeft=4;spacingRight=4;rotatable=0;points=[[0,0.5],[1,0.5]];portConstraint=eastwest;whiteSpace=wrap;#FFFFFFwhiteSpace=wrap;overflow=block;blockSpacing=1;html=1;fontSize=13;fillColor=none;strokeOpacity=100;" vertex="1" parent="bArtmmXtZpLSBm0RDngK-186">
          <mxGeometry y="78" width="149" height="24" as="geometry" />
        </mxCell>
        <mxCell id="bArtmmXtZpLSBm0RDngK-190" value="favorite" style="part=1;resizeHeight=0;strokeColor=none;align=left;verticalAlign=top;spacingLeft=4;spacingRight=4;overflow=hidden;rotatable=0;points=[[0,0.5],[1,0.5]];portConstraint=eastwest;html=1;whiteSpace=wrap;#FFFFFFwhiteSpace=wrap;fontSize=13;fontColor=#333333;fontStyle=2;fillColor=#000000;opacity=5;" vertex="1" parent="bArtmmXtZpLSBm0RDngK-186">
          <mxGeometry y="102" width="149" height="24" as="geometry" />
        </mxCell>
        <mxCell id="bArtmmXtZpLSBm0RDngK-191" value="spots_users" style="html=1;overflow=block;blockSpacing=1;whiteSpace=wrap;fontSize=13.3;fontColor=#333333;fontStyle=2;align=left;spacingLeft=8.4;spacingRight=8.4;spacingTop=2.4;spacing=3.6;verticalAlign=middle;strokeColor=#333333;strokeOpacity=100;fillOpacity=100;fillColor=#ffb781;strokeWidth=0.8;lucidId=abGMQFGj1Hsh;" vertex="1" parent="bArtmmXtZpLSBm0RDngK-128">
          <mxGeometry x="258" y="512" width="150" height="30" as="geometry" />
        </mxCell>
        <mxCell id="bArtmmXtZpLSBm0RDngK-192" value="*" style="html=1;overflow=block;blockSpacing=1;whiteSpace=wrap;fontSize=26;fontFamily=Liberation Mono;fontColor=#333333;align=left;spacing=3.8;verticalAlign=top;strokeColor=none;fillOpacity=0;fillColor=#ffffff;strokeWidth=0;lucidId=0jX2UHr8kBoU;" vertex="1" parent="bArtmmXtZpLSBm0RDngK-128">
          <mxGeometry x="525" y="324" width="15" height="14" as="geometry" />
        </mxCell>
        <mxCell id="bArtmmXtZpLSBm0RDngK-193" value="*" style="html=1;overflow=block;blockSpacing=1;whiteSpace=wrap;fontSize=26;fontFamily=Liberation Mono;fontColor=#333333;align=left;spacing=3.8;verticalAlign=top;strokeColor=none;fillOpacity=0;fillColor=#ffffff;strokeWidth=0;lucidId=dkX2Fu3gEHix;" vertex="1" parent="bArtmmXtZpLSBm0RDngK-128">
          <mxGeometry x="435" y="384" width="15" height="14" as="geometry" />
        </mxCell>
        <mxCell id="bArtmmXtZpLSBm0RDngK-194" value="*" style="html=1;overflow=block;blockSpacing=1;whiteSpace=wrap;fontSize=26;fontFamily=Liberation Mono;fontColor=#333333;align=left;spacing=3.8;verticalAlign=top;strokeColor=none;fillOpacity=0;fillColor=#ffffff;strokeWidth=0;lucidId=rkX2uECzyS~8;" vertex="1" parent="bArtmmXtZpLSBm0RDngK-128">
          <mxGeometry x="630" y="488" width="15" height="14" as="geometry" />
        </mxCell>
        <mxCell id="bArtmmXtZpLSBm0RDngK-195" value="*" style="html=1;overflow=block;blockSpacing=1;whiteSpace=wrap;fontSize=26;fontFamily=Liberation Mono;fontColor=#333333;align=left;spacing=3.8;verticalAlign=top;strokeColor=none;fillOpacity=0;fillColor=#ffffff;strokeWidth=0;lucidId=EkX2fC1FTWP5;" vertex="1" parent="bArtmmXtZpLSBm0RDngK-128">
          <mxGeometry x="420" y="520" width="15" height="14" as="geometry" />
        </mxCell>
        <mxCell id="bArtmmXtZpLSBm0RDngK-196" value="*" style="html=1;overflow=block;blockSpacing=1;whiteSpace=wrap;fontSize=26;fontFamily=Liberation Mono;fontColor=#333333;align=left;spacing=3.8;verticalAlign=top;strokeColor=none;fillOpacity=0;fillColor=#ffffff;strokeWidth=0;lucidId=QkX2Xt-8-wTT;" vertex="1" parent="bArtmmXtZpLSBm0RDngK-128">
          <mxGeometry x="69" y="444" width="15" height="14" as="geometry" />
        </mxCell>
        <mxCell id="bArtmmXtZpLSBm0RDngK-197" value="*" style="html=1;overflow=block;blockSpacing=1;whiteSpace=wrap;fontSize=26;fontFamily=Liberation Mono;fontColor=#333333;align=left;spacing=3.8;verticalAlign=top;strokeColor=none;fillOpacity=0;fillColor=#ffffff;strokeWidth=0;lucidId=0kX25GW0zcUM;" vertex="1" parent="bArtmmXtZpLSBm0RDngK-128">
          <mxGeometry x="165" y="307" width="15" height="14" as="geometry" />
        </mxCell>
        <mxCell id="bArtmmXtZpLSBm0RDngK-198" value="*" style="html=1;overflow=block;blockSpacing=1;whiteSpace=wrap;fontSize=26;fontFamily=Liberation Mono;fontColor=#333333;align=left;spacing=3.8;verticalAlign=top;strokeColor=none;fillOpacity=0;fillColor=#ffffff;strokeWidth=0;lucidId=.kX2XOoW2nKr;" vertex="1" parent="bArtmmXtZpLSBm0RDngK-128">
          <mxGeometry x="230" y="165" width="15" height="14" as="geometry" />
        </mxCell>
        <mxCell id="bArtmmXtZpLSBm0RDngK-199" value="*" style="html=1;overflow=block;blockSpacing=1;whiteSpace=wrap;fontSize=26;fontFamily=Liberation Mono;fontColor=#333333;align=left;spacing=3.8;verticalAlign=top;strokeColor=none;fillOpacity=0;fillColor=#ffffff;strokeWidth=0;lucidId=ilX2X4TDnrsb;" vertex="1" parent="bArtmmXtZpLSBm0RDngK-128">
          <mxGeometry x="330" y="481" width="15" height="14" as="geometry" />
        </mxCell>
        <mxCell id="bArtmmXtZpLSBm0RDngK-200" value="*" style="html=1;overflow=block;blockSpacing=1;whiteSpace=wrap;fontSize=26;fontFamily=Liberation Mono;fontColor=#333333;align=left;spacing=3.8;verticalAlign=top;strokeColor=none;fillOpacity=0;fillColor=#ffffff;strokeWidth=0;lucidId=FCX2YD5Rvcts;" vertex="1" parent="bArtmmXtZpLSBm0RDngK-128">
          <mxGeometry x="435" y="429" width="15" height="14" as="geometry" />
        </mxCell>
        <mxCell id="bArtmmXtZpLSBm0RDngK-201" value="" style="html=1;overflow=block;blockSpacing=1;swimlane;childLayout=stackLayout;horizontal=1;horizontalStack=0;resizeParent=1;resizeParentMax=0;resizeLast=0;collapsible=0;fontStyle=0;marginBottom=0;swimlaneFillColor=#ffffff;startSize=30;whiteSpace=wrap;fontSize=13;align=left;spacing=0;strokeColor=#333333;strokeOpacity=100;strokeWidth=0.8;fillColor=#d9d9d9;" vertex="1" parent="bArtmmXtZpLSBm0RDngK-128">
          <mxGeometry x="257" width="149" height="78" as="geometry" />
        </mxCell>
        <mxCell id="bArtmmXtZpLSBm0RDngK-202" value="&lt;div style=&quot;display: flex; justify-content: center; text-align: center; align-items: baseline; font-size: 0; line-height: 1.25;margin-top: -2px;&quot;&gt;&lt;span&gt;&lt;span style=&quot;font-size:13px;color:#333333;font-weight: bold;font-style: italic;&quot;&gt;PK&lt;/span&gt;&lt;span style=&quot;font-size:13px;color:#333333;font-style: italic;&quot;&gt; spot_id&lt;/span&gt;&lt;/span&gt;&lt;/div&gt;" style="part=1;resizeHeight=0;strokeColor=none;align=left;verticalAlign=top;spacingLeft=4;spacingRight=4;overflow=hidden;rotatable=0;points=[[0,0.5],[1,0.5]];portConstraint=eastwest;html=1;whiteSpace=wrap;#FFFFFFwhiteSpace=wrap;fontSize=13;fontColor=#333333;fontStyle=3;fillColor=none;strokeOpacity=100;" vertex="1" parent="bArtmmXtZpLSBm0RDngK-201">
          <mxGeometry y="30" width="149" height="24" as="geometry" />
        </mxCell>
        <mxCell id="bArtmmXtZpLSBm0RDngK-203" value="&lt;div style=&quot;display: flex; justify-content: center; text-align: center; align-items: baseline; font-size: 0; line-height: 1.25;margin-top: -2px;&quot;&gt;&lt;span&gt;&lt;span style=&quot;font-size:13px;color:#333333;font-weight: bold;font-style: italic;&quot;&gt;PK&lt;/span&gt;&lt;span style=&quot;font-size:13px;color:#333333;font-style: italic;&quot;&gt; sport_type_id&lt;/span&gt;&lt;/span&gt;&lt;/div&gt;" style="part=1;resizeHeight=0;strokeColor=none;align=left;verticalAlign=top;spacingLeft=4;spacingRight=4;rotatable=0;points=[[0,0.5],[1,0.5]];portConstraint=eastwest;whiteSpace=wrap;#FFFFFFwhiteSpace=wrap;overflow=block;blockSpacing=1;html=1;fontSize=13;fillColor=#000000;opacity=5;" vertex="1" parent="bArtmmXtZpLSBm0RDngK-201">
          <mxGeometry y="54" width="149" height="24" as="geometry" />
        </mxCell>
        <mxCell id="bArtmmXtZpLSBm0RDngK-204" value="spots_sport_types" style="html=1;overflow=block;blockSpacing=1;whiteSpace=wrap;fontSize=13.3;fontColor=#333333;fontStyle=2;align=left;spacingLeft=8.4;spacingRight=8.4;spacingTop=2.4;spacing=3.6;verticalAlign=middle;strokeColor=#333333;strokeOpacity=100;fillOpacity=100;fillColor=#ffb781;strokeWidth=0.8;lucidId=D_X2zO1bVHkz;" vertex="1" parent="bArtmmXtZpLSBm0RDngK-128">
          <mxGeometry x="256" width="150" height="30" as="geometry" />
        </mxCell>
        <mxCell id="bArtmmXtZpLSBm0RDngK-205" value="*" style="html=1;overflow=block;blockSpacing=1;whiteSpace=wrap;fontSize=26;fontFamily=Liberation Mono;fontColor=#333333;align=left;spacing=3.8;verticalAlign=top;strokeColor=none;fillOpacity=0;fillColor=#ffffff;strokeWidth=0;lucidId=maY2Jzd-QMNP;" vertex="1" parent="bArtmmXtZpLSBm0RDngK-128">
          <mxGeometry x="324" y="90" width="15" height="14" as="geometry" />
        </mxCell>
        <mxCell id="bArtmmXtZpLSBm0RDngK-206" value="*" style="html=1;overflow=block;blockSpacing=1;whiteSpace=wrap;fontSize=26;fontFamily=Liberation Mono;fontColor=#333333;align=left;spacing=3.8;verticalAlign=top;strokeColor=none;fillOpacity=0;fillColor=#ffffff;strokeWidth=0;lucidId=saY20Zk9DccS;" vertex="1" parent="bArtmmXtZpLSBm0RDngK-128">
          <mxGeometry x="225" y="39" width="15" height="14" as="geometry" />
        </mxCell>
        <mxCell id="bArtmmXtZpLSBm0RDngK-207" value="" style="html=1;overflow=block;blockSpacing=1;swimlane;childLayout=stackLayout;horizontal=1;horizontalStack=0;resizeParent=1;resizeParentMax=0;resizeLast=0;collapsible=0;fontStyle=0;marginBottom=0;swimlaneFillColor=#ffffff;startSize=30;whiteSpace=wrap;fontSize=13;align=left;spacing=0;strokeColor=#333333;strokeOpacity=100;strokeWidth=0.8;fillColor=#d9d9d9;" vertex="1" parent="bArtmmXtZpLSBm0RDngK-128">
          <mxGeometry x="563" y="152" width="149" height="78" as="geometry" />
        </mxCell>
        <mxCell id="bArtmmXtZpLSBm0RDngK-208" value="&lt;div style=&quot;display: flex; justify-content: center; text-align: center; align-items: baseline; font-size: 0; line-height: 1.25;margin-top: -2px;&quot;&gt;&lt;span&gt;&lt;span style=&quot;font-size:13px;color:#333333;font-weight: bold;font-style: italic;&quot;&gt;PK&lt;/span&gt;&lt;span style=&quot;font-size:13px;color:#333333;font-style: italic;&quot;&gt; spot_id&lt;/span&gt;&lt;/span&gt;&lt;/div&gt;" style="part=1;resizeHeight=0;strokeColor=none;align=left;verticalAlign=top;spacingLeft=4;spacingRight=4;overflow=hidden;rotatable=0;points=[[0,0.5],[1,0.5]];portConstraint=eastwest;html=1;whiteSpace=wrap;#FFFFFFwhiteSpace=wrap;fontSize=13;fontColor=#333333;fontStyle=3;fillColor=none;strokeOpacity=100;" vertex="1" parent="bArtmmXtZpLSBm0RDngK-207">
          <mxGeometry y="30" width="149" height="24" as="geometry" />
        </mxCell>
        <mxCell id="bArtmmXtZpLSBm0RDngK-209" value="&lt;div style=&quot;display: flex; justify-content: center; text-align: center; align-items: baseline; font-size: 0; line-height: 1.25;margin-top: -2px;&quot;&gt;&lt;span&gt;&lt;span style=&quot;font-size:13px;color:#333333;font-weight: bold;font-style: italic;&quot;&gt;PK&lt;/span&gt;&lt;span style=&quot;font-size:13px;color:#333333;font-style: italic;&quot;&gt; spot_type_id&lt;/span&gt;&lt;/span&gt;&lt;/div&gt;" style="part=1;resizeHeight=0;strokeColor=none;align=left;verticalAlign=top;spacingLeft=4;spacingRight=4;rotatable=0;points=[[0,0.5],[1,0.5]];portConstraint=eastwest;whiteSpace=wrap;#FFFFFFwhiteSpace=wrap;overflow=block;blockSpacing=1;html=1;fontSize=13;fillColor=#000000;opacity=5;" vertex="1" parent="bArtmmXtZpLSBm0RDngK-207">
          <mxGeometry y="54" width="149" height="24" as="geometry" />
        </mxCell>
        <mxCell id="bArtmmXtZpLSBm0RDngK-210" value="spots_spot_types" style="html=1;overflow=block;blockSpacing=1;whiteSpace=wrap;fontSize=13.3;fontColor=#333333;fontStyle=2;align=left;spacingLeft=8.4;spacingRight=8.4;spacingTop=2.4;spacing=3.6;verticalAlign=middle;strokeColor=#333333;strokeOpacity=100;fillOpacity=100;fillColor=#ffb781;strokeWidth=0.8;lucidId=8aY25nduIUUj;" vertex="1" parent="bArtmmXtZpLSBm0RDngK-128">
          <mxGeometry x="561" y="152" width="150" height="30" as="geometry" />
        </mxCell>
        <mxCell id="bArtmmXtZpLSBm0RDngK-211" value="*" style="html=1;overflow=block;blockSpacing=1;whiteSpace=wrap;fontSize=26;fontFamily=Liberation Mono;fontColor=#333333;align=left;spacing=3.8;verticalAlign=top;strokeColor=none;fillOpacity=0;fillColor=#ffffff;strokeWidth=0;lucidId=acY249IFbqL3;" vertex="1" parent="bArtmmXtZpLSBm0RDngK-128">
          <mxGeometry x="525" y="179" width="15" height="14" as="geometry" />
        </mxCell>
        <mxCell id="bArtmmXtZpLSBm0RDngK-212" value="*" style="html=1;overflow=block;blockSpacing=1;whiteSpace=wrap;fontSize=26;fontFamily=Liberation Mono;fontColor=#333333;align=left;spacing=3.8;verticalAlign=top;strokeColor=none;fillOpacity=0;fillColor=#ffffff;strokeWidth=0;lucidId=tcY2gr15TgVd;" vertex="1" parent="bArtmmXtZpLSBm0RDngK-128">
          <mxGeometry x="629" y="90" width="15" height="14" as="geometry" />
        </mxCell>
        <mxCell id="bArtmmXtZpLSBm0RDngK-213" value="" style="html=1;jettySize=18;whiteSpace=wrap;fontSize=13;strokeColor=#333333;strokeOpacity=100;strokeWidth=0.8;rounded=1;arcSize=24;edgeStyle=orthogonalEdgeStyle;startArrow=block;startFill=1;endArrow=block;endFill=1;exitX=1.003;exitY=0.192;exitPerimeter=0;entryX=-0.003;entryY=0.79;entryPerimeter=0;lucidId=aQEv0hEq-9D~;" edge="1" parent="bArtmmXtZpLSBm0RDngK-128" source="bArtmmXtZpLSBm0RDngK-146" target="bArtmmXtZpLSBm0RDngK-141">
          <mxGeometry width="100" height="100" relative="1" as="geometry">
            <Array as="points" />
          </mxGeometry>
        </mxCell>
        <mxCell id="bArtmmXtZpLSBm0RDngK-214" value=" " style="text;html=1;resizable=0;labelBackgroundColor=default;align=center;verticalAlign=middle;fontColor=default;fontSize=16;" vertex="1" parent="bArtmmXtZpLSBm0RDngK-213">
          <mxGeometry x="0.5683942889964346" relative="1" as="geometry" />
        </mxCell>
        <mxCell id="bArtmmXtZpLSBm0RDngK-215" value="1" style="text;html=1;resizable=0;labelBackgroundColor=default;align=center;verticalAlign=middle;fontColor=#333333;fontSize=13;" vertex="1" parent="bArtmmXtZpLSBm0RDngK-213">
          <mxGeometry x="-0.7295888114457861" relative="1" as="geometry" />
        </mxCell>
        <mxCell id="bArtmmXtZpLSBm0RDngK-216" value="" style="html=1;jettySize=18;whiteSpace=wrap;fontSize=13;strokeColor=#333333;strokeOpacity=100;strokeWidth=0.8;rounded=1;arcSize=24;edgeStyle=orthogonalEdgeStyle;startArrow=block;startFill=1;endArrow=block;endFill=1;exitX=1.003;exitY=0.28;exitPerimeter=0;entryX=-0.003;entryY=0.555;entryPerimeter=0;lucidId=aWEvnbeaMvTp;" edge="1" parent="bArtmmXtZpLSBm0RDngK-128" source="bArtmmXtZpLSBm0RDngK-155" target="bArtmmXtZpLSBm0RDngK-129">
          <mxGeometry width="100" height="100" relative="1" as="geometry">
            <Array as="points" />
          </mxGeometry>
        </mxCell>
        <mxCell id="bArtmmXtZpLSBm0RDngK-217" value="1" style="text;html=1;resizable=0;labelBackgroundColor=default;align=center;verticalAlign=middle;fontColor=#333333;fontSize=13;" vertex="1" parent="bArtmmXtZpLSBm0RDngK-216">
          <mxGeometry x="0.5683942889964346" relative="1" as="geometry" />
        </mxCell>
        <mxCell id="bArtmmXtZpLSBm0RDngK-218" value=" " style="text;html=1;resizable=0;labelBackgroundColor=default;align=center;verticalAlign=middle;fontColor=default;fontSize=16;" vertex="1" parent="bArtmmXtZpLSBm0RDngK-216">
          <mxGeometry x="-0.7295888114457861" relative="1" as="geometry" />
        </mxCell>
        <mxCell id="bArtmmXtZpLSBm0RDngK-219" value="" style="html=1;jettySize=18;whiteSpace=wrap;fontSize=13;strokeColor=#333333;strokeOpacity=100;strokeWidth=0.8;rounded=1;arcSize=24;edgeStyle=orthogonalEdgeStyle;startArrow=block;startFill=1;endArrow=block;endFill=1;exitX=-0.003;exitY=0.514;exitPerimeter=0;entryX=0.5;entryY=1.003;entryPerimeter=0;lucidId=WMXv0Uj-YdmI;" edge="1" parent="bArtmmXtZpLSBm0RDngK-128" source="bArtmmXtZpLSBm0RDngK-162" target="bArtmmXtZpLSBm0RDngK-155">
          <mxGeometry width="100" height="100" relative="1" as="geometry">
            <Array as="points">
              <mxPoint x="76" y="663" />
              <mxPoint x="76" y="547" />
              <mxPoint x="74" y="547" />
            </Array>
          </mxGeometry>
        </mxCell>
        <mxCell id="bArtmmXtZpLSBm0RDngK-220" value=" " style="text;html=1;resizable=0;labelBackgroundColor=default;align=center;verticalAlign=middle;fontColor=default;fontSize=16;" vertex="1" parent="bArtmmXtZpLSBm0RDngK-219">
          <mxGeometry x="0.5683942889964346" relative="1" as="geometry" />
        </mxCell>
        <mxCell id="bArtmmXtZpLSBm0RDngK-221" value="1" style="text;html=1;resizable=0;labelBackgroundColor=default;align=center;verticalAlign=middle;fontColor=#333333;fontSize=13;" vertex="1" parent="bArtmmXtZpLSBm0RDngK-219">
          <mxGeometry x="-0.864213943890782" relative="1" as="geometry" />
        </mxCell>
        <mxCell id="bArtmmXtZpLSBm0RDngK-222" value="" style="html=1;jettySize=18;whiteSpace=wrap;fontSize=13;strokeColor=#333333;strokeOpacity=100;strokeWidth=0.8;rounded=1;arcSize=24;edgeStyle=orthogonalEdgeStyle;startArrow=block;startFill=1;endArrow=block;endFill=1;exitX=-0.003;exitY=0.33;exitPerimeter=0;entryX=1.003;entryY=0.633;entryPerimeter=0;lucidId=sPXvQrO7nVfi;" edge="1" parent="bArtmmXtZpLSBm0RDngK-128" source="bArtmmXtZpLSBm0RDngK-177" target="bArtmmXtZpLSBm0RDngK-129">
          <mxGeometry width="100" height="100" relative="1" as="geometry">
            <Array as="points" />
          </mxGeometry>
        </mxCell>
        <mxCell id="bArtmmXtZpLSBm0RDngK-223" value="1" style="text;html=1;resizable=0;labelBackgroundColor=default;align=center;verticalAlign=middle;fontColor=#333333;fontSize=13;" vertex="1" parent="bArtmmXtZpLSBm0RDngK-222">
          <mxGeometry x="0.5683942889964346" relative="1" as="geometry" />
        </mxCell>
        <mxCell id="bArtmmXtZpLSBm0RDngK-224" value="" style="html=1;jettySize=18;whiteSpace=wrap;fontSize=13;strokeColor=#333333;strokeOpacity=100;strokeWidth=0.8;rounded=1;arcSize=24;edgeStyle=orthogonalEdgeStyle;startArrow=block;startFill=1;endArrow=block;endFill=1;exitX=0.5;exitY=1.002;exitPerimeter=0;entryX=0.5;entryY=-0.013;entryPerimeter=0;lucidId=qeYvDfjWV_oc;" edge="1" parent="bArtmmXtZpLSBm0RDngK-128" source="bArtmmXtZpLSBm0RDngK-177" target="bArtmmXtZpLSBm0RDngK-171">
          <mxGeometry width="100" height="100" relative="1" as="geometry">
            <Array as="points" />
          </mxGeometry>
        </mxCell>
        <mxCell id="bArtmmXtZpLSBm0RDngK-225" value="1" style="text;html=1;resizable=0;labelBackgroundColor=default;align=center;verticalAlign=middle;fontColor=#333333;fontSize=13;" vertex="1" parent="bArtmmXtZpLSBm0RDngK-224">
          <mxGeometry x="0.5683942889964346" relative="1" as="geometry" />
        </mxCell>
        <mxCell id="bArtmmXtZpLSBm0RDngK-226" value="" style="html=1;jettySize=18;whiteSpace=wrap;fontSize=13;strokeColor=#333333;strokeOpacity=100;strokeWidth=0.8;rounded=1;arcSize=24;edgeStyle=orthogonalEdgeStyle;startArrow=block;startFill=1;endArrow=block;endFill=1;exitX=0.503;exitY=1.001;exitPerimeter=0;entryX=0.5;entryY=-0.003;entryPerimeter=0;lucidId=riGMy1GJ0MTs;" edge="1" parent="bArtmmXtZpLSBm0RDngK-128" source="bArtmmXtZpLSBm0RDngK-129" target="bArtmmXtZpLSBm0RDngK-186">
          <mxGeometry width="100" height="100" relative="1" as="geometry">
            <Array as="points" />
          </mxGeometry>
        </mxCell>
        <mxCell id="bArtmmXtZpLSBm0RDngK-227" value="" style="text;html=1;resizable=0;labelBackgroundColor=default;align=center;verticalAlign=middle;fontSize=13;" vertex="1" parent="bArtmmXtZpLSBm0RDngK-226">
          <mxGeometry x="-0.10816796257880534" relative="1" as="geometry" />
        </mxCell>
        <mxCell id="bArtmmXtZpLSBm0RDngK-228" value="1" style="text;html=1;resizable=0;labelBackgroundColor=default;align=center;verticalAlign=middle;fontColor=#333333;fontSize=13;" vertex="1" parent="bArtmmXtZpLSBm0RDngK-226">
          <mxGeometry x="-0.1848480135464946" relative="1" as="geometry" />
        </mxCell>
        <mxCell id="bArtmmXtZpLSBm0RDngK-229" value="" style="html=1;jettySize=18;whiteSpace=wrap;fontSize=13;strokeColor=#333333;strokeOpacity=100;strokeWidth=0.8;rounded=1;arcSize=24;edgeStyle=orthogonalEdgeStyle;startArrow=block;startFill=1;endArrow=block;endFill=1;exitX=1.003;exitY=0.648;exitPerimeter=0;entryX=-0.003;entryY=0.838;entryPerimeter=0;lucidId=loGM5e4~qs10;" edge="1" parent="bArtmmXtZpLSBm0RDngK-128" source="bArtmmXtZpLSBm0RDngK-172" target="bArtmmXtZpLSBm0RDngK-162">
          <mxGeometry width="100" height="100" relative="1" as="geometry">
            <Array as="points" />
          </mxGeometry>
        </mxCell>
        <mxCell id="bArtmmXtZpLSBm0RDngK-230" value="1" style="text;html=1;resizable=0;labelBackgroundColor=default;align=center;verticalAlign=middle;fontColor=#333333;fontSize=13;" vertex="1" parent="bArtmmXtZpLSBm0RDngK-229">
          <mxGeometry x="0.5683942889964346" relative="1" as="geometry" />
        </mxCell>
        <mxCell id="bArtmmXtZpLSBm0RDngK-231" value="1" style="text;html=1;resizable=0;labelBackgroundColor=default;align=center;verticalAlign=middle;fontColor=#333333;fontSize=13;" vertex="1" parent="bArtmmXtZpLSBm0RDngK-229">
          <mxGeometry x="-0.6543768183726544" relative="1" as="geometry" />
        </mxCell>
        <mxCell id="bArtmmXtZpLSBm0RDngK-232" value="" style="html=1;jettySize=18;whiteSpace=wrap;fontSize=13;strokeColor=#333333;strokeOpacity=100;strokeWidth=0.8;rounded=1;arcSize=24;edgeStyle=orthogonalEdgeStyle;startArrow=block;startFill=1;endArrow=block;endFill=1;exitX=-0.003;exitY=0.405;exitPerimeter=0;entryX=1.003;entryY=0.814;entryPerimeter=0;lucidId=.DGMYGT~cEmr;" edge="1" parent="bArtmmXtZpLSBm0RDngK-128" source="bArtmmXtZpLSBm0RDngK-162" target="bArtmmXtZpLSBm0RDngK-191">
          <mxGeometry width="100" height="100" relative="1" as="geometry">
            <Array as="points" />
          </mxGeometry>
        </mxCell>
        <mxCell id="bArtmmXtZpLSBm0RDngK-233" value="1" style="text;html=1;resizable=0;labelBackgroundColor=default;align=center;verticalAlign=middle;fontColor=#333333;fontSize=13;" vertex="1" parent="bArtmmXtZpLSBm0RDngK-232">
          <mxGeometry x="-0.864213943890782" relative="1" as="geometry" />
        </mxCell>
        <mxCell id="bArtmmXtZpLSBm0RDngK-234" value="" style="html=1;jettySize=18;whiteSpace=wrap;fontSize=13;strokeColor=#333333;strokeOpacity=100;strokeWidth=0.8;rounded=1;arcSize=24;edgeStyle=orthogonalEdgeStyle;startArrow=block;startFill=1;endArrow=block;endFill=1;exitX=-0.003;exitY=0.5;exitPerimeter=0;entryX=1.003;entryY=0.796;entryPerimeter=0;lucidId=FmJM2ttnEiDQ;" edge="1" parent="bArtmmXtZpLSBm0RDngK-128" source="bArtmmXtZpLSBm0RDngK-171" target="bArtmmXtZpLSBm0RDngK-129">
          <mxGeometry width="100" height="100" relative="1" as="geometry">
            <Array as="points" />
          </mxGeometry>
        </mxCell>
        <mxCell id="bArtmmXtZpLSBm0RDngK-235" value=" " style="text;html=1;resizable=0;labelBackgroundColor=default;align=center;verticalAlign=middle;fontColor=default;fontSize=16;" vertex="1" parent="bArtmmXtZpLSBm0RDngK-234">
          <mxGeometry x="0.5683942889964346" relative="1" as="geometry" />
        </mxCell>
        <mxCell id="bArtmmXtZpLSBm0RDngK-236" value="1" style="text;html=1;resizable=0;labelBackgroundColor=default;align=center;verticalAlign=middle;fontColor=#333333;fontSize=13;" vertex="1" parent="bArtmmXtZpLSBm0RDngK-234">
          <mxGeometry x="-0.864213943890782" relative="1" as="geometry" />
        </mxCell>
        <mxCell id="bArtmmXtZpLSBm0RDngK-237" value="" style="html=1;jettySize=18;whiteSpace=wrap;fontSize=13;strokeColor=#333333;strokeOpacity=100;strokeWidth=0.8;rounded=1;arcSize=24;edgeStyle=orthogonalEdgeStyle;startArrow=block;startFill=1;endArrow=block;endFill=1;exitX=-0.003;exitY=0.189;exitPerimeter=0;entryX=1;entryY=0.959;entryPerimeter=0;lucidId=IBX2~wCdSe7p;" edge="1" parent="bArtmmXtZpLSBm0RDngK-128" source="bArtmmXtZpLSBm0RDngK-162" target="bArtmmXtZpLSBm0RDngK-129">
          <mxGeometry width="100" height="100" relative="1" as="geometry">
            <Array as="points" />
          </mxGeometry>
        </mxCell>
        <mxCell id="bArtmmXtZpLSBm0RDngK-238" value=" " style="text;html=1;resizable=0;labelBackgroundColor=default;align=center;verticalAlign=middle;fontColor=default;fontSize=16;" vertex="1" parent="bArtmmXtZpLSBm0RDngK-237">
          <mxGeometry x="0.5683942889964346" relative="1" as="geometry" />
        </mxCell>
        <mxCell id="bArtmmXtZpLSBm0RDngK-239" value="1" style="text;html=1;resizable=0;labelBackgroundColor=default;align=center;verticalAlign=middle;fontColor=#333333;fontSize=13;" vertex="1" parent="bArtmmXtZpLSBm0RDngK-237">
          <mxGeometry x="-0.864213943890782" relative="1" as="geometry" />
        </mxCell>
        <mxCell id="bArtmmXtZpLSBm0RDngK-240" value="" style="html=1;jettySize=18;whiteSpace=wrap;fontSize=13;strokeColor=#333333;strokeOpacity=100;strokeWidth=0.8;rounded=1;arcSize=24;edgeStyle=orthogonalEdgeStyle;startArrow=block;startFill=1;endArrow=block;endFill=1;exitX=0.488;exitY=-0.011;exitPerimeter=0;entryX=0.5;entryY=1.005;entryPerimeter=0;lucidId=D~X2vWxQs8pL;" edge="1" parent="bArtmmXtZpLSBm0RDngK-128" source="bArtmmXtZpLSBm0RDngK-141" target="bArtmmXtZpLSBm0RDngK-201">
          <mxGeometry width="100" height="100" relative="1" as="geometry">
            <Array as="points" />
          </mxGeometry>
        </mxCell>
        <mxCell id="bArtmmXtZpLSBm0RDngK-241" value=" " style="text;html=1;resizable=0;labelBackgroundColor=default;align=center;verticalAlign=middle;fontColor=default;fontSize=16;" vertex="1" parent="bArtmmXtZpLSBm0RDngK-240">
          <mxGeometry x="0.5683942889964346" relative="1" as="geometry" />
        </mxCell>
        <mxCell id="bArtmmXtZpLSBm0RDngK-242" value="" style="text;html=1;resizable=0;labelBackgroundColor=default;align=center;verticalAlign=middle;fontSize=13;" vertex="1" parent="bArtmmXtZpLSBm0RDngK-240">
          <mxGeometry relative="1" as="geometry" />
        </mxCell>
        <mxCell id="bArtmmXtZpLSBm0RDngK-243" value="1" style="text;html=1;resizable=0;labelBackgroundColor=default;align=center;verticalAlign=middle;fontColor=#333333;fontSize=13;" vertex="1" parent="bArtmmXtZpLSBm0RDngK-240">
          <mxGeometry x="-0.3771925199486652" relative="1" as="geometry" />
        </mxCell>
        <mxCell id="bArtmmXtZpLSBm0RDngK-244" value="" style="html=1;jettySize=18;whiteSpace=wrap;fontSize=13;strokeColor=#333333;strokeOpacity=100;strokeWidth=0.8;rounded=1;arcSize=24;edgeStyle=orthogonalEdgeStyle;startArrow=block;startFill=1;endArrow=block;endFill=1;exitX=1.003;exitY=0.53;exitPerimeter=0;entryX=-0.003;entryY=0.693;entryPerimeter=0;lucidId=eaY2F55jY4Xw;" edge="1" parent="bArtmmXtZpLSBm0RDngK-128" source="bArtmmXtZpLSBm0RDngK-150" target="bArtmmXtZpLSBm0RDngK-201">
          <mxGeometry width="100" height="100" relative="1" as="geometry">
            <Array as="points" />
          </mxGeometry>
        </mxCell>
        <mxCell id="bArtmmXtZpLSBm0RDngK-245" value=" " style="text;html=1;resizable=0;labelBackgroundColor=default;align=center;verticalAlign=middle;fontColor=default;fontSize=16;" vertex="1" parent="bArtmmXtZpLSBm0RDngK-244">
          <mxGeometry x="0.5683942889964346" relative="1" as="geometry" />
        </mxCell>
        <mxCell id="bArtmmXtZpLSBm0RDngK-246" value="1" style="text;html=1;resizable=0;labelBackgroundColor=default;align=center;verticalAlign=middle;fontColor=#333333;fontSize=13;" vertex="1" parent="bArtmmXtZpLSBm0RDngK-244">
          <mxGeometry x="-0.7295888114457861" relative="1" as="geometry" />
        </mxCell>
        <mxCell id="bArtmmXtZpLSBm0RDngK-247" value="" style="html=1;jettySize=18;whiteSpace=wrap;fontSize=13;strokeColor=#333333;strokeOpacity=100;strokeWidth=0.8;rounded=1;arcSize=24;edgeStyle=orthogonalEdgeStyle;startArrow=block;startFill=1;endArrow=block;endFill=1;exitX=0.496;exitY=-0.005;exitPerimeter=0;entryX=0.5;entryY=1.005;entryPerimeter=0;lucidId=SbY2ppS5XO9E;" edge="1" parent="bArtmmXtZpLSBm0RDngK-128" source="bArtmmXtZpLSBm0RDngK-207" target="bArtmmXtZpLSBm0RDngK-142">
          <mxGeometry width="100" height="100" relative="1" as="geometry">
            <Array as="points" />
          </mxGeometry>
        </mxCell>
        <mxCell id="bArtmmXtZpLSBm0RDngK-248" value=" " style="text;html=1;resizable=0;labelBackgroundColor=default;align=center;verticalAlign=middle;fontColor=default;fontSize=16;" vertex="1" parent="bArtmmXtZpLSBm0RDngK-247">
          <mxGeometry x="0.5683942889964346" relative="1" as="geometry" />
        </mxCell>
        <mxCell id="bArtmmXtZpLSBm0RDngK-249" value="" style="text;html=1;resizable=0;labelBackgroundColor=default;align=center;verticalAlign=middle;fontSize=13;" vertex="1" parent="bArtmmXtZpLSBm0RDngK-247">
          <mxGeometry relative="1" as="geometry" />
        </mxCell>
        <mxCell id="bArtmmXtZpLSBm0RDngK-250" value="1" style="text;html=1;resizable=0;labelBackgroundColor=default;align=center;verticalAlign=middle;fontColor=#333333;fontSize=13;" vertex="1" parent="bArtmmXtZpLSBm0RDngK-247">
          <mxGeometry x="-0.3771925199486652" relative="1" as="geometry" />
        </mxCell>
        <mxCell id="bArtmmXtZpLSBm0RDngK-251" value="" style="html=1;jettySize=18;whiteSpace=wrap;fontSize=13;strokeColor=#333333;strokeOpacity=100;strokeWidth=0.8;rounded=1;arcSize=24;edgeStyle=orthogonalEdgeStyle;startArrow=block;startFill=1;endArrow=block;endFill=1;exitX=1.003;exitY=0.121;exitPerimeter=0;entryX=-0.003;entryY=0.539;entryPerimeter=0;lucidId=0bY2libbuu~w;" edge="1" parent="bArtmmXtZpLSBm0RDngK-128" source="bArtmmXtZpLSBm0RDngK-129" target="bArtmmXtZpLSBm0RDngK-207">
          <mxGeometry width="100" height="100" relative="1" as="geometry">
            <Array as="points" />
          </mxGeometry>
        </mxCell>
        <mxCell id="bArtmmXtZpLSBm0RDngK-252" value=" " style="text;html=1;resizable=0;labelBackgroundColor=default;align=center;verticalAlign=middle;fontColor=default;fontSize=16;" vertex="1" parent="bArtmmXtZpLSBm0RDngK-251">
          <mxGeometry x="0.5683942889964346" relative="1" as="geometry" />
        </mxCell>
        <mxCell id="bArtmmXtZpLSBm0RDngK-253" value="" style="text;html=1;resizable=0;labelBackgroundColor=default;align=center;verticalAlign=middle;fontSize=13;" vertex="1" parent="bArtmmXtZpLSBm0RDngK-251">
          <mxGeometry relative="1" as="geometry" />
        </mxCell>
        <mxCell id="bArtmmXtZpLSBm0RDngK-254" value="1" style="text;html=1;resizable=0;labelBackgroundColor=default;align=center;verticalAlign=middle;fontColor=#333333;fontSize=13;" vertex="1" parent="bArtmmXtZpLSBm0RDngK-251">
          <mxGeometry x="-0.77418938062702" relative="1" as="geometry" />
        </mxCell>
      </root>
    </mxGraphModel>
  </diagram>
</mxfile>
